<svg xmlns="http://www.w3.org/2000/svg" xmlns:xlink="http://www.w3.org/1999/xlink" width="48" zoomAndPan="magnify" viewBox="0 0 36 36.000001" height="48" preserveAspectRatio="xMidYMid meet" version="1.0"><defs><g/><clipPath id="17cd7b4a25"><path d="M 13.273438 10.011719 L 22.757812 10.011719 L 22.757812 19.5 L 13.273438 19.5 Z M 13.273438 10.011719 " clip-rule="nonzero"/></clipPath></defs><g clip-path="url(#17cd7b4a25)"><path fill="#292a73" d="M 18.015625 19.5 C 20.628906 19.5 22.757812 17.367188 22.757812 14.757812 C 22.757812 12.144531 20.628906 10.011719 18.015625 10.011719 C 15.402344 10.011719 13.273438 12.144531 13.273438 14.757812 C 13.273438 17.367188 15.402344 19.5 18.015625 19.5 " fill-opacity="1" fill-rule="evenodd"/></g><path fill="#ffffff" d="M 18.539062 15.128906 C 18.726562 15.128906 18.902344 15.152344 19.03125 15.1875 C 19.191406 15.234375 19.292969 15.308594 19.292969 15.40625 C 19.292969 15.5 19.191406 15.574219 19.03125 15.621094 C 18.902344 15.65625 18.726562 15.679688 18.539062 15.679688 C 18.347656 15.679688 18.175781 15.65625 18.046875 15.621094 C 17.886719 15.574219 17.785156 15.5 17.785156 15.40625 C 17.785156 15.308594 17.886719 15.234375 18.046875 15.1875 C 18.175781 15.152344 18.347656 15.128906 18.539062 15.128906 " fill-opacity="1" fill-rule="nonzero"/><path fill="#ffffff" d="M 19.230469 15.621094 C 19.269531 15.65625 19.292969 15.695312 19.292969 15.742188 C 19.292969 15.835938 19.191406 15.910156 19.03125 15.957031 C 18.902344 15.992188 18.726562 16.015625 18.539062 16.015625 C 18.347656 16.015625 18.175781 15.992188 18.046875 15.957031 C 17.886719 15.910156 17.785156 15.835938 17.785156 15.742188 C 17.785156 15.695312 17.808594 15.65625 17.847656 15.621094 C 17.902344 15.652344 17.964844 15.679688 18.023438 15.695312 C 18.183594 15.738281 18.371094 15.753906 18.539062 15.753906 C 18.707031 15.753906 18.894531 15.738281 19.054688 15.695312 C 19.113281 15.679688 19.175781 15.652344 19.230469 15.621094 " fill-opacity="1" fill-rule="nonzero"/><path fill="#ffffff" d="M 19.230469 15.945312 C 19.269531 15.980469 19.292969 16.019531 19.292969 16.0625 C 19.292969 16.160156 19.191406 16.234375 19.03125 16.28125 C 18.902344 16.316406 18.726562 16.339844 18.539062 16.339844 C 18.347656 16.339844 18.175781 16.316406 18.046875 16.28125 C 17.886719 16.234375 17.785156 16.160156 17.785156 16.0625 C 17.785156 16.019531 17.808594 15.980469 17.847656 15.945312 C 17.902344 15.976562 17.964844 16 18.023438 16.019531 C 18.183594 16.0625 18.371094 16.078125 18.539062 16.078125 C 18.707031 16.078125 18.894531 16.0625 19.054688 16.019531 C 19.113281 16 19.175781 15.976562 19.230469 15.945312 " fill-opacity="1" fill-rule="nonzero"/><path fill="#ffffff" d="M 19.230469 16.269531 C 19.269531 16.304688 19.292969 16.34375 19.292969 16.386719 C 19.292969 16.484375 19.191406 16.558594 19.03125 16.605469 C 18.902344 16.640625 18.726562 16.664062 18.539062 16.664062 C 18.347656 16.664062 18.175781 16.640625 18.046875 16.605469 C 17.886719 16.558594 17.785156 16.484375 17.785156 16.386719 C 17.785156 16.34375 17.808594 16.304688 17.847656 16.269531 C 17.902344 16.300781 17.964844 16.324219 18.023438 16.339844 C 18.183594 16.386719 18.371094 16.402344 18.539062 16.402344 C 18.707031 16.402344 18.894531 16.386719 19.054688 16.339844 C 19.113281 16.324219 19.175781 16.300781 19.230469 16.269531 " fill-opacity="1" fill-rule="nonzero"/><path fill="#ffffff" d="M 19.230469 16.59375 C 19.269531 16.628906 19.292969 16.667969 19.292969 16.710938 C 19.292969 16.808594 19.191406 16.882812 19.03125 16.929688 C 18.902344 16.964844 18.726562 16.984375 18.539062 16.984375 C 18.347656 16.984375 18.175781 16.964844 18.046875 16.929688 C 17.886719 16.882812 17.785156 16.808594 17.785156 16.710938 C 17.785156 16.667969 17.808594 16.628906 17.847656 16.59375 C 17.902344 16.625 17.964844 16.648438 18.023438 16.664062 C 18.183594 16.710938 18.371094 16.726562 18.539062 16.726562 C 18.707031 16.726562 18.894531 16.710938 19.054688 16.664062 C 19.113281 16.648438 19.175781 16.625 19.230469 16.59375 " fill-opacity="1" fill-rule="nonzero"/><path fill="#ffffff" d="M 19.230469 16.917969 C 19.269531 16.949219 19.292969 16.992188 19.292969 17.035156 C 19.292969 17.128906 19.191406 17.207031 19.03125 17.25 C 18.902344 17.289062 18.726562 17.308594 18.539062 17.308594 C 18.347656 17.308594 18.175781 17.289062 18.046875 17.25 C 17.886719 17.207031 17.785156 17.128906 17.785156 17.035156 C 17.785156 16.992188 17.808594 16.949219 17.847656 16.917969 C 17.902344 16.949219 17.964844 16.972656 18.023438 16.988281 C 18.183594 17.035156 18.371094 17.050781 18.539062 17.050781 C 18.707031 17.050781 18.894531 17.035156 19.054688 16.988281 C 19.113281 16.972656 19.175781 16.949219 19.230469 16.917969 " fill-opacity="1" fill-rule="nonzero"/><path fill="#ffffff" d="M 18.421875 14.382812 L 20.234375 12.25 L 20.527344 12.496094 L 18.476562 14.917969 L 18.328125 14.800781 L 17.535156 14.167969 L 16.128906 15.71875 L 15.847656 15.460938 L 17.496094 13.644531 L 18.421875 14.382812 " fill-opacity="1" fill-rule="evenodd"/><path fill="#ffffff" d="M 19.625 12.300781 L 20.511719 12.203125 L 20.609375 13.078125 Z M 19.625 12.300781 " fill-opacity="1" fill-rule="nonzero"/><path fill="#ffffff" d="M 16.175781 15.777344 C 16.363281 15.777344 16.539062 15.800781 16.664062 15.835938 C 16.828125 15.882812 16.925781 15.957031 16.925781 16.050781 C 16.925781 16.148438 16.828125 16.222656 16.664062 16.269531 C 16.539062 16.304688 16.363281 16.324219 16.175781 16.324219 C 15.984375 16.324219 15.8125 16.304688 15.683594 16.269531 C 15.523438 16.222656 15.421875 16.148438 15.421875 16.050781 C 15.421875 15.957031 15.523438 15.882812 15.683594 15.835938 C 15.8125 15.800781 15.984375 15.777344 16.175781 15.777344 " fill-opacity="1" fill-rule="nonzero"/><path fill="#ffffff" d="M 16.867188 16.269531 C 16.90625 16.304688 16.925781 16.34375 16.925781 16.386719 C 16.925781 16.484375 16.828125 16.558594 16.664062 16.605469 C 16.539062 16.640625 16.363281 16.664062 16.175781 16.664062 C 15.984375 16.664062 15.8125 16.640625 15.683594 16.605469 C 15.523438 16.558594 15.421875 16.484375 15.421875 16.386719 C 15.421875 16.34375 15.445312 16.304688 15.484375 16.269531 C 15.539062 16.300781 15.601562 16.324219 15.660156 16.339844 C 15.820312 16.386719 16.007812 16.402344 16.175781 16.402344 C 16.34375 16.402344 16.527344 16.386719 16.691406 16.339844 C 16.75 16.324219 16.8125 16.300781 16.867188 16.269531 " fill-opacity="1" fill-rule="nonzero"/><path fill="#ffffff" d="M 16.867188 16.59375 C 16.90625 16.628906 16.925781 16.667969 16.925781 16.710938 C 16.925781 16.808594 16.828125 16.882812 16.664062 16.929688 C 16.539062 16.964844 16.363281 16.984375 16.175781 16.984375 C 15.984375 16.984375 15.8125 16.964844 15.683594 16.929688 C 15.523438 16.882812 15.421875 16.808594 15.421875 16.710938 C 15.421875 16.667969 15.445312 16.628906 15.484375 16.59375 C 15.539062 16.625 15.601562 16.648438 15.660156 16.664062 C 15.820312 16.710938 16.007812 16.726562 16.175781 16.726562 C 16.34375 16.726562 16.527344 16.710938 16.691406 16.664062 C 16.75 16.648438 16.8125 16.625 16.867188 16.59375 " fill-opacity="1" fill-rule="nonzero"/><path fill="#ffffff" d="M 16.867188 16.917969 C 16.90625 16.949219 16.925781 16.992188 16.925781 17.035156 C 16.925781 17.128906 16.828125 17.207031 16.664062 17.25 C 16.539062 17.289062 16.363281 17.308594 16.175781 17.308594 C 15.984375 17.308594 15.8125 17.289062 15.683594 17.25 C 15.523438 17.207031 15.421875 17.128906 15.421875 17.035156 C 15.421875 16.992188 15.445312 16.949219 15.484375 16.917969 C 15.539062 16.949219 15.601562 16.972656 15.660156 16.988281 C 15.820312 17.035156 16.007812 17.050781 16.175781 17.050781 C 16.34375 17.050781 16.527344 17.035156 16.691406 16.988281 C 16.75 16.972656 16.8125 16.949219 16.867188 16.917969 " fill-opacity="1" fill-rule="nonzero"/><g fill="#292a73" fill-opacity="1"><g transform="translate(14.322267, 22.51683)"><g><path d="M 0.21875 -0.375 C 0.132812 -0.382812 0.09375 -0.40625 0.09375 -0.4375 C 0.09375 -0.457031 0.101562 -0.476562 0.125 -0.5 C 0.15625 -0.53125 0.1875 -0.554688 0.21875 -0.578125 C 0.21875 -0.671875 0.203125 -0.773438 0.171875 -0.890625 C 0.148438 -1.003906 0.128906 -1.09375 0.109375 -1.15625 C 0.0976562 -1.21875 0.09375 -1.273438 0.09375 -1.328125 C 0.09375 -1.378906 0.0976562 -1.410156 0.109375 -1.421875 C 0.128906 -1.429688 0.15625 -1.4375 0.1875 -1.4375 C 0.21875 -1.4375 0.238281 -1.429688 0.25 -1.421875 C 0.257812 -1.421875 0.265625 -1.410156 0.265625 -1.390625 C 0.265625 -1.378906 0.265625 -1.367188 0.265625 -1.359375 C 0.273438 -1.347656 0.28125 -1.335938 0.28125 -1.328125 C 0.289062 -1.296875 0.316406 -1.28125 0.359375 -1.28125 C 0.453125 -1.28125 0.550781 -1.285156 0.65625 -1.296875 C 0.757812 -1.316406 0.859375 -1.335938 0.953125 -1.359375 C 1.160156 -1.390625 1.300781 -1.40625 1.375 -1.40625 C 1.457031 -1.40625 1.523438 -1.398438 1.578125 -1.390625 C 1.578125 -1.367188 1.578125 -1.347656 1.578125 -1.328125 C 1.585938 -1.304688 1.59375 -1.285156 1.59375 -1.265625 C 1.59375 -1.242188 1.566406 -1.234375 1.515625 -1.234375 C 0.722656 -1.210938 0.328125 -1.15625 0.328125 -1.0625 C 0.328125 -0.96875 0.332031 -0.882812 0.34375 -0.8125 C 0.351562 -0.738281 0.363281 -0.691406 0.375 -0.671875 C 0.382812 -0.660156 0.394531 -0.65625 0.40625 -0.65625 C 0.488281 -0.65625 0.570312 -0.660156 0.65625 -0.671875 C 0.75 -0.691406 0.835938 -0.707031 0.921875 -0.71875 C 1.015625 -0.738281 1.101562 -0.753906 1.1875 -0.765625 C 1.28125 -0.785156 1.367188 -0.796875 1.453125 -0.796875 C 1.460938 -0.796875 1.46875 -0.789062 1.46875 -0.78125 C 1.46875 -0.769531 1.460938 -0.753906 1.453125 -0.734375 C 1.453125 -0.703125 1.453125 -0.6875 1.453125 -0.6875 C 1.390625 -0.644531 1.273438 -0.613281 1.109375 -0.59375 C 1.035156 -0.582031 0.957031 -0.570312 0.875 -0.5625 C 0.800781 -0.550781 0.726562 -0.539062 0.65625 -0.53125 C 0.507812 -0.507812 0.425781 -0.484375 0.40625 -0.453125 L 0.375 0 C 0.363281 0.0078125 0.347656 0.015625 0.328125 0.015625 L 0.234375 0.015625 C 0.222656 0.015625 0.21875 0.015625 0.21875 0.015625 Z M 0.21875 -0.375 "/></g></g></g><g fill="#292a73" fill-opacity="1"><g transform="translate(15.938822, 22.51683)"><g><path d="M 1.203125 -0.03125 C 1.203125 -0.0078125 1.175781 0 1.125 0 C 1.101562 0 1.082031 0 1.0625 0 C 1.039062 -0.0078125 1.03125 -0.015625 1.03125 -0.015625 L 1.046875 -0.3125 C 0.910156 -0.195312 0.8125 -0.125 0.75 -0.09375 C 0.644531 -0.0390625 0.539062 -0.015625 0.4375 -0.015625 C 0.414062 -0.015625 0.394531 -0.015625 0.375 -0.015625 C 0.15625 -0.0351562 0.046875 -0.175781 0.046875 -0.4375 C 0.046875 -0.5625 0.078125 -0.765625 0.140625 -1.046875 C 0.160156 -1.128906 0.171875 -1.207031 0.171875 -1.28125 C 0.179688 -1.28125 0.191406 -1.28125 0.203125 -1.28125 C 0.203125 -1.28125 0.210938 -1.28125 0.234375 -1.28125 C 0.242188 -1.289062 0.25 -1.296875 0.25 -1.296875 C 0.300781 -1.296875 0.328125 -1.257812 0.328125 -1.1875 C 0.328125 -1.132812 0.316406 -1.070312 0.296875 -1 C 0.234375 -0.75 0.203125 -0.578125 0.203125 -0.484375 C 0.203125 -0.390625 0.226562 -0.3125 0.28125 -0.25 C 0.3125 -0.21875 0.363281 -0.195312 0.4375 -0.1875 C 0.445312 -0.1875 0.457031 -0.1875 0.46875 -0.1875 C 0.71875 -0.1875 0.878906 -0.304688 0.953125 -0.546875 C 0.992188 -0.679688 1.019531 -0.847656 1.03125 -1.046875 C 1.03125 -1.140625 1.035156 -1.234375 1.046875 -1.328125 C 1.054688 -1.367188 1.078125 -1.390625 1.109375 -1.390625 C 1.140625 -1.390625 1.171875 -1.375 1.203125 -1.34375 C 1.210938 -1.257812 1.21875 -1.175781 1.21875 -1.09375 L 1.1875 -0.21875 C 1.1875 -0.15625 1.191406 -0.09375 1.203125 -0.03125 Z M 1.203125 -0.03125 "/></g></g></g><g fill="#292a73" fill-opacity="1"><g transform="translate(17.24985, 22.51683)"><g><path d="M 0.1875 -1 L 0.171875 -1.5625 L 0.359375 -1.546875 L 0.34375 -0.21875 L 1.53125 -0.1875 C 1.5625 -0.175781 1.578125 -0.160156 1.578125 -0.140625 C 1.578125 -0.128906 1.566406 -0.113281 1.546875 -0.09375 C 1.492188 -0.0507812 1.441406 -0.03125 1.390625 -0.03125 C 1.378906 -0.03125 1.363281 -0.03125 1.34375 -0.03125 L 0.125 -0.046875 C 0.164062 -0.191406 0.1875 -0.507812 0.1875 -1 Z M 0.1875 -1 "/></g></g></g><g fill="#292a73" fill-opacity="1"><g transform="translate(18.866405, 22.51683)"><g><path d="M 1.203125 -0.03125 C 1.203125 -0.0078125 1.175781 0 1.125 0 C 1.101562 0 1.082031 0 1.0625 0 C 1.039062 -0.0078125 1.03125 -0.015625 1.03125 -0.015625 L 1.046875 -0.3125 C 0.910156 -0.195312 0.8125 -0.125 0.75 -0.09375 C 0.644531 -0.0390625 0.539062 -0.015625 0.4375 -0.015625 C 0.414062 -0.015625 0.394531 -0.015625 0.375 -0.015625 C 0.15625 -0.0351562 0.046875 -0.175781 0.046875 -0.4375 C 0.046875 -0.5625 0.078125 -0.765625 0.140625 -1.046875 C 0.160156 -1.128906 0.171875 -1.207031 0.171875 -1.28125 C 0.179688 -1.28125 0.191406 -1.28125 0.203125 -1.28125 C 0.203125 -1.28125 0.210938 -1.28125 0.234375 -1.28125 C 0.242188 -1.289062 0.25 -1.296875 0.25 -1.296875 C 0.300781 -1.296875 0.328125 -1.257812 0.328125 -1.1875 C 0.328125 -1.132812 0.316406 -1.070312 0.296875 -1 C 0.234375 -0.75 0.203125 -0.578125 0.203125 -0.484375 C 0.203125 -0.390625 0.226562 -0.3125 0.28125 -0.25 C 0.3125 -0.21875 0.363281 -0.195312 0.4375 -0.1875 C 0.445312 -0.1875 0.457031 -0.1875 0.46875 -0.1875 C 0.71875 -0.1875 0.878906 -0.304688 0.953125 -0.546875 C 0.992188 -0.679688 1.019531 -0.847656 1.03125 -1.046875 C 1.03125 -1.140625 1.035156 -1.234375 1.046875 -1.328125 C 1.054688 -1.367188 1.078125 -1.390625 1.109375 -1.390625 C 1.140625 -1.390625 1.171875 -1.375 1.203125 -1.34375 C 1.210938 -1.257812 1.21875 -1.175781 1.21875 -1.09375 L 1.1875 -0.21875 C 1.1875 -0.15625 1.191406 -0.09375 1.203125 -0.03125 Z M 1.203125 -0.03125 "/></g></g></g><g fill="#292a73" fill-opacity="1"><g transform="translate(20.177433, 22.51683)"><g><path d="M 0.03125 -0.1875 C 0.03125 -0.21875 0.0390625 -0.242188 0.0625 -0.265625 C 0.09375 -0.296875 0.113281 -0.3125 0.125 -0.3125 C 0.132812 -0.320312 0.144531 -0.332031 0.15625 -0.34375 C 0.15625 -0.195312 0.25 -0.125 0.4375 -0.125 C 0.570312 -0.125 0.734375 -0.171875 0.921875 -0.265625 C 1.054688 -0.328125 1.144531 -0.390625 1.1875 -0.453125 C 1.207031 -0.472656 1.21875 -0.488281 1.21875 -0.5 C 1.21875 -0.507812 1.210938 -0.519531 1.203125 -0.53125 L 0.265625 -0.734375 C 0.234375 -0.742188 0.207031 -0.757812 0.1875 -0.78125 C 0.132812 -0.8125 0.109375 -0.84375 0.109375 -0.875 C 0.109375 -0.976562 0.1875 -1.070312 0.34375 -1.15625 C 0.5 -1.25 0.71875 -1.316406 1 -1.359375 C 1.0625 -1.367188 1.101562 -1.375 1.125 -1.375 C 1.132812 -1.375 1.148438 -1.375 1.171875 -1.375 C 1.191406 -1.375 1.210938 -1.367188 1.234375 -1.359375 C 1.273438 -1.347656 1.296875 -1.332031 1.296875 -1.3125 C 1.296875 -1.257812 1.195312 -1.21875 1 -1.1875 C 0.738281 -1.144531 0.578125 -1.109375 0.515625 -1.078125 C 0.453125 -1.054688 0.40625 -1.03125 0.375 -1 C 0.351562 -0.976562 0.34375 -0.945312 0.34375 -0.90625 C 0.34375 -0.894531 0.359375 -0.882812 0.390625 -0.875 C 0.421875 -0.875 0.460938 -0.863281 0.515625 -0.84375 C 0.566406 -0.832031 0.628906 -0.816406 0.703125 -0.796875 C 0.890625 -0.742188 1.117188 -0.679688 1.390625 -0.609375 C 1.410156 -0.578125 1.421875 -0.546875 1.421875 -0.515625 C 1.421875 -0.429688 1.375 -0.351562 1.28125 -0.28125 C 1.175781 -0.195312 1.03125 -0.125 0.84375 -0.0625 C 0.6875 -0.0195312 0.5625 0 0.46875 0 C 0.382812 0 0.304688 -0.0078125 0.234375 -0.03125 C 0.171875 -0.0625 0.117188 -0.0859375 0.078125 -0.109375 C 0.046875 -0.140625 0.03125 -0.164062 0.03125 -0.1875 Z M 0.03125 -0.1875 "/></g></g></g></svg>