<svg xmlns="http://www.w3.org/2000/svg" xmlns:xlink="http://www.w3.org/1999/xlink" width="500" zoomAndPan="magnify" viewBox="0 0 375 374.999991" height="500" preserveAspectRatio="xMidYMid meet" version="1.0"><defs><g/><clipPath id="63541fafa3"><path d="M 136.882812 107.195312 L 238.132812 107.195312 L 238.132812 208.445312 L 136.882812 208.445312 Z M 136.882812 107.195312 " clip-rule="nonzero"/></clipPath></defs><g clip-path="url(#63541fafa3)"><path fill="#292a73" d="M 187.511719 208.449219 C 215.394531 208.449219 238.136719 185.707031 238.136719 157.824219 C 238.136719 129.9375 215.394531 107.195312 187.511719 107.195312 C 159.625 107.195312 136.882812 129.9375 136.882812 157.824219 C 136.882812 185.707031 159.625 208.449219 187.511719 208.449219 " fill-opacity="1" fill-rule="evenodd"/></g><path fill="#ffffff" d="M 193.089844 161.820312 C 195.117188 161.820312 196.96875 162.054688 198.332031 162.4375 C 200.058594 162.921875 201.128906 163.726562 201.128906 164.746094 C 201.128906 165.761719 200.058594 166.570312 198.332031 167.050781 C 196.96875 167.433594 195.117188 167.667969 193.089844 167.667969 C 191.066406 167.667969 189.214844 167.433594 187.851562 167.050781 C 186.125 166.570312 185.054688 165.761719 185.054688 164.746094 C 185.054688 163.726562 186.125 162.921875 187.851562 162.4375 C 189.214844 162.054688 191.066406 161.820312 193.089844 161.820312 " fill-opacity="1" fill-rule="nonzero"/><path fill="#ffffff" d="M 200.472656 167.054688 C 200.898438 167.429688 201.128906 167.855469 201.128906 168.332031 C 201.128906 169.347656 200.058594 170.15625 198.332031 170.640625 C 196.96875 171.019531 195.117188 171.257812 193.089844 171.257812 C 191.066406 171.257812 189.214844 171.019531 187.851562 170.640625 C 186.125 170.15625 185.054688 169.347656 185.054688 168.332031 C 185.054688 167.855469 185.289062 167.429688 185.710938 167.054688 C 186.292969 167.40625 186.964844 167.660156 187.585938 167.835938 C 189.308594 168.316406 191.296875 168.488281 193.089844 168.488281 C 194.886719 168.488281 196.875 168.316406 198.597656 167.835938 C 199.222656 167.660156 199.890625 167.40625 200.472656 167.054688 " fill-opacity="1" fill-rule="nonzero"/><path fill="#ffffff" d="M 200.472656 170.511719 C 200.898438 170.882812 201.128906 171.3125 201.128906 171.785156 C 201.128906 172.804688 200.058594 173.609375 198.332031 174.09375 C 196.96875 174.476562 195.117188 174.710938 193.089844 174.710938 C 191.066406 174.710938 189.214844 174.476562 187.851562 174.09375 C 186.125 173.609375 185.054688 172.804688 185.054688 171.785156 C 185.054688 171.3125 185.289062 170.882812 185.710938 170.511719 C 186.292969 170.859375 186.964844 171.117188 187.585938 171.289062 C 189.308594 171.773438 191.296875 171.945312 193.089844 171.945312 C 194.886719 171.945312 196.875 171.773438 198.597656 171.289062 C 199.222656 171.117188 199.890625 170.859375 200.472656 170.511719 " fill-opacity="1" fill-rule="nonzero"/><path fill="#ffffff" d="M 200.472656 173.964844 C 200.898438 174.339844 201.128906 174.765625 201.128906 175.242188 C 201.128906 176.257812 200.058594 177.066406 198.332031 177.550781 C 196.96875 177.929688 195.117188 178.167969 193.089844 178.167969 C 191.066406 178.167969 189.214844 177.929688 187.851562 177.550781 C 186.125 177.066406 185.054688 176.257812 185.054688 175.242188 C 185.054688 174.765625 185.289062 174.339844 185.710938 173.964844 C 186.292969 174.316406 186.964844 174.570312 187.585938 174.746094 C 189.308594 175.226562 191.296875 175.398438 193.089844 175.398438 C 194.886719 175.398438 196.875 175.226562 198.597656 174.746094 C 199.222656 174.570312 199.890625 174.316406 200.472656 173.964844 " fill-opacity="1" fill-rule="nonzero"/><path fill="#ffffff" d="M 200.472656 177.421875 C 200.898438 177.792969 201.128906 178.222656 201.128906 178.695312 C 201.128906 179.710938 200.058594 180.519531 198.332031 181.003906 C 196.96875 181.386719 195.117188 181.621094 193.089844 181.621094 C 191.066406 181.621094 189.214844 181.386719 187.851562 181.003906 C 186.125 180.519531 185.054688 179.710938 185.054688 178.695312 C 185.054688 178.222656 185.289062 177.792969 185.710938 177.421875 C 186.292969 177.769531 186.964844 178.023438 187.585938 178.199219 C 189.308594 178.683594 191.296875 178.851562 193.089844 178.851562 C 194.886719 178.851562 196.875 178.683594 198.597656 178.199219 C 199.222656 178.023438 199.890625 177.769531 200.472656 177.421875 " fill-opacity="1" fill-rule="nonzero"/><path fill="#ffffff" d="M 200.472656 180.875 C 200.898438 181.25 201.128906 181.675781 201.128906 182.152344 C 201.128906 183.167969 200.058594 183.976562 198.332031 184.457031 C 196.96875 184.839844 195.117188 185.074219 193.089844 185.074219 C 191.066406 185.074219 189.214844 184.839844 187.851562 184.457031 C 186.125 183.976562 185.054688 183.167969 185.054688 182.152344 C 185.054688 181.675781 185.289062 181.25 185.710938 180.875 C 186.292969 181.226562 186.964844 181.480469 187.585938 181.65625 C 189.308594 182.136719 191.296875 182.308594 193.089844 182.308594 C 194.886719 182.308594 196.875 182.136719 198.597656 181.65625 C 199.222656 181.480469 199.890625 181.226562 200.472656 180.875 " fill-opacity="1" fill-rule="nonzero"/><path fill="#ffffff" d="M 191.867188 153.855469 L 211.179688 131.058594 L 214.304688 133.707031 L 192.414062 159.539062 L 190.863281 158.300781 L 182.402344 151.546875 L 167.390625 168.097656 L 164.355469 165.34375 L 181.949219 145.941406 L 191.867188 153.855469 " fill-opacity="1" fill-rule="evenodd"/><path fill="#ffffff" d="M 204.699219 131.628906 L 214.148438 130.570312 L 215.199219 139.917969 Z M 204.699219 131.628906 " fill-opacity="1" fill-rule="nonzero"/><path fill="#ffffff" d="M 167.863281 168.730469 C 169.886719 168.730469 171.738281 168.964844 173.101562 169.347656 C 174.828125 169.832031 175.898438 170.636719 175.898438 171.65625 C 175.898438 172.671875 174.828125 173.476562 173.101562 173.960938 C 171.738281 174.34375 169.886719 174.578125 167.863281 174.578125 C 165.835938 174.578125 163.984375 174.34375 162.621094 173.960938 C 160.894531 173.476562 159.824219 172.671875 159.824219 171.65625 C 159.824219 170.636719 160.894531 169.832031 162.621094 169.347656 C 163.984375 168.964844 165.835938 168.730469 167.863281 168.730469 " fill-opacity="1" fill-rule="nonzero"/><path fill="#ffffff" d="M 175.242188 173.964844 C 175.667969 174.339844 175.898438 174.765625 175.898438 175.242188 C 175.898438 176.257812 174.828125 177.066406 173.101562 177.550781 C 171.738281 177.929688 169.886719 178.167969 167.863281 178.167969 C 165.835938 178.167969 163.984375 177.929688 162.621094 177.550781 C 160.894531 177.066406 159.824219 176.257812 159.824219 175.242188 C 159.824219 174.765625 160.058594 174.339844 160.480469 173.964844 C 161.0625 174.316406 161.734375 174.570312 162.355469 174.746094 C 164.078125 175.226562 166.066406 175.398438 167.863281 175.398438 C 169.65625 175.398438 171.644531 175.226562 173.367188 174.746094 C 173.992188 174.570312 174.660156 174.316406 175.242188 173.964844 " fill-opacity="1" fill-rule="nonzero"/><path fill="#ffffff" d="M 175.242188 177.421875 C 175.667969 177.792969 175.898438 178.222656 175.898438 178.695312 C 175.898438 179.710938 174.828125 180.519531 173.101562 181.003906 C 171.738281 181.386719 169.886719 181.621094 167.863281 181.621094 C 165.835938 181.621094 163.984375 181.386719 162.621094 181.003906 C 160.894531 180.519531 159.824219 179.710938 159.824219 178.695312 C 159.824219 178.222656 160.058594 177.792969 160.480469 177.421875 C 161.0625 177.769531 161.734375 178.023438 162.355469 178.199219 C 164.078125 178.683594 166.066406 178.851562 167.863281 178.851562 C 169.65625 178.851562 171.644531 178.683594 173.367188 178.199219 C 173.992188 178.023438 174.660156 177.769531 175.242188 177.421875 " fill-opacity="1" fill-rule="nonzero"/><path fill="#ffffff" d="M 175.242188 180.875 C 175.667969 181.25 175.898438 181.675781 175.898438 182.152344 C 175.898438 183.167969 174.828125 183.976562 173.101562 184.457031 C 171.738281 184.839844 169.886719 185.074219 167.863281 185.074219 C 165.835938 185.074219 163.984375 184.839844 162.621094 184.457031 C 160.894531 183.976562 159.824219 183.167969 159.824219 182.152344 C 159.824219 181.675781 160.058594 181.25 160.480469 180.875 C 161.0625 181.226562 161.734375 181.480469 162.355469 181.65625 C 164.078125 182.136719 166.066406 182.308594 167.863281 182.308594 C 169.65625 182.308594 171.644531 182.136719 173.367188 181.65625 C 173.992188 181.480469 174.660156 181.226562 175.242188 180.875 " fill-opacity="1" fill-rule="nonzero"/><g fill="#292a73" fill-opacity="1"><g transform="translate(148.126115, 241.065541)"><g><path d="M 2.296875 -4.046875 C 1.378906 -4.179688 0.921875 -4.394531 0.921875 -4.6875 C 0.921875 -4.894531 1.078125 -5.132812 1.390625 -5.40625 C 1.703125 -5.6875 2.007812 -5.976562 2.3125 -6.28125 C 2.3125 -7.25 2.164062 -8.335938 1.875 -9.546875 C 1.582031 -10.765625 1.367188 -11.707031 1.234375 -12.375 C 1.109375 -13.039062 1.046875 -13.648438 1.046875 -14.203125 C 1.046875 -14.765625 1.128906 -15.117188 1.296875 -15.265625 C 1.472656 -15.410156 1.722656 -15.484375 2.046875 -15.484375 C 2.378906 -15.484375 2.59375 -15.4375 2.6875 -15.34375 C 2.78125 -15.25 2.84375 -15.132812 2.875 -15 C 2.914062 -14.875 2.9375 -14.738281 2.9375 -14.59375 C 2.945312 -14.445312 2.976562 -14.3125 3.03125 -14.1875 C 3.113281 -13.875 3.363281 -13.71875 3.78125 -13.71875 C 4.875 -13.738281 5.960938 -13.832031 7.046875 -14 C 8.140625 -14.175781 9.222656 -14.351562 10.296875 -14.53125 C 12.453125 -14.882812 13.960938 -15.0625 14.828125 -15.0625 C 15.703125 -15.0625 16.390625 -15.035156 16.890625 -14.984375 C 16.910156 -14.679688 16.941406 -14.414062 16.984375 -14.1875 C 17.035156 -13.957031 17.0625 -13.769531 17.0625 -13.625 C 17.0625 -13.34375 16.796875 -13.242188 16.265625 -13.328125 C 7.742188 -13.015625 3.484375 -12.378906 3.484375 -11.421875 C 3.484375 -10.367188 3.554688 -9.460938 3.703125 -8.703125 C 3.859375 -7.941406 3.972656 -7.460938 4.046875 -7.265625 C 4.117188 -7.078125 4.203125 -6.984375 4.296875 -6.984375 C 5.222656 -6.984375 6.160156 -7.0625 7.109375 -7.21875 C 8.066406 -7.382812 9.019531 -7.5625 9.96875 -7.75 C 10.925781 -7.9375 11.882812 -8.109375 12.84375 -8.265625 C 13.800781 -8.429688 14.742188 -8.515625 15.671875 -8.515625 C 15.691406 -8.515625 15.703125 -8.453125 15.703125 -8.328125 C 15.703125 -8.210938 15.691406 -8.082031 15.671875 -7.9375 C 15.617188 -7.539062 15.617188 -7.34375 15.671875 -7.34375 C 14.972656 -6.957031 13.703125 -6.640625 11.859375 -6.390625 C 11.066406 -6.273438 10.253906 -6.171875 9.421875 -6.078125 C 8.585938 -5.984375 7.820312 -5.878906 7.125 -5.765625 C 5.519531 -5.535156 4.585938 -5.234375 4.328125 -4.859375 L 4.046875 -0.078125 C 3.867188 0.109375 3.664062 0.203125 3.4375 0.203125 L 2.546875 0.125 C 2.460938 0.125 2.378906 0.125 2.296875 0.125 Z M 2.296875 -4.046875 "/></g></g></g><g fill="#292a73" fill-opacity="1"><g transform="translate(165.43298, 241.065541)"><g><path d="M 12.84375 -0.390625 C 12.84375 -0.0976562 12.585938 0.046875 12.078125 0.046875 C 11.835938 0.046875 11.613281 0.0078125 11.40625 -0.0625 C 11.207031 -0.132812 11.082031 -0.195312 11.03125 -0.25 L 11.28125 -3.375 C 9.78125 -2.082031 8.691406 -1.273438 8.015625 -0.953125 C 6.929688 -0.410156 5.832031 -0.140625 4.71875 -0.140625 C 4.5 -0.140625 4.273438 -0.148438 4.046875 -0.171875 C 1.671875 -0.429688 0.484375 -1.953125 0.484375 -4.734375 C 0.484375 -6.003906 0.8125 -8.160156 1.46875 -11.203125 C 1.675781 -12.148438 1.8125 -13.015625 1.875 -13.796875 C 1.925781 -13.804688 2.035156 -13.8125 2.203125 -13.8125 C 2.203125 -13.8125 2.296875 -13.8125 2.484375 -13.8125 C 2.566406 -13.832031 2.640625 -13.84375 2.703125 -13.84375 C 3.222656 -13.84375 3.484375 -13.453125 3.484375 -12.671875 C 3.484375 -12.128906 3.378906 -11.460938 3.171875 -10.671875 C 2.523438 -8.046875 2.203125 -6.226562 2.203125 -5.21875 C 2.203125 -4.164062 2.476562 -3.335938 3.03125 -2.734375 C 3.382812 -2.347656 3.945312 -2.113281 4.71875 -2.03125 C 4.8125 -2.03125 4.90625 -2.03125 5 -2.03125 C 7.65625 -2.03125 9.398438 -3.304688 10.234375 -5.859375 C 10.722656 -7.359375 11.003906 -9.164062 11.078125 -11.28125 C 11.128906 -12.257812 11.171875 -13.226562 11.203125 -14.1875 C 11.378906 -14.675781 11.625 -14.921875 11.9375 -14.921875 C 12.25 -14.921875 12.59375 -14.78125 12.96875 -14.5 C 13.007812 -13.5625 13.03125 -12.632812 13.03125 -11.71875 L 12.796875 -2.390625 C 12.796875 -1.722656 12.8125 -1.054688 12.84375 -0.390625 Z M 12.84375 -0.390625 "/></g></g></g><g fill="#292a73" fill-opacity="1"><g transform="translate(179.468871, 241.065541)"><g><path d="M 1.953125 -10.671875 L 1.90625 -16.75 L 3.859375 -16.671875 L 3.640625 -2.375 L 16.5 -2 C 16.757812 -1.914062 16.890625 -1.773438 16.890625 -1.578125 C 16.890625 -1.390625 16.769531 -1.191406 16.53125 -0.984375 C 16.0625 -0.554688 15.523438 -0.34375 14.921875 -0.34375 C 14.773438 -0.34375 14.617188 -0.359375 14.453125 -0.390625 L 1.34375 -0.515625 C 1.75 -2.023438 1.953125 -5.410156 1.953125 -10.671875 Z M 1.953125 -10.671875 "/></g></g></g><g fill="#292a73" fill-opacity="1"><g transform="translate(196.775736, 241.065541)"><g><path d="M 12.84375 -0.390625 C 12.84375 -0.0976562 12.585938 0.046875 12.078125 0.046875 C 11.835938 0.046875 11.613281 0.0078125 11.40625 -0.0625 C 11.207031 -0.132812 11.082031 -0.195312 11.03125 -0.25 L 11.28125 -3.375 C 9.78125 -2.082031 8.691406 -1.273438 8.015625 -0.953125 C 6.929688 -0.410156 5.832031 -0.140625 4.71875 -0.140625 C 4.5 -0.140625 4.273438 -0.148438 4.046875 -0.171875 C 1.671875 -0.429688 0.484375 -1.953125 0.484375 -4.734375 C 0.484375 -6.003906 0.8125 -8.160156 1.46875 -11.203125 C 1.675781 -12.148438 1.8125 -13.015625 1.875 -13.796875 C 1.925781 -13.804688 2.035156 -13.8125 2.203125 -13.8125 C 2.203125 -13.8125 2.296875 -13.8125 2.484375 -13.8125 C 2.566406 -13.832031 2.640625 -13.84375 2.703125 -13.84375 C 3.222656 -13.84375 3.484375 -13.453125 3.484375 -12.671875 C 3.484375 -12.128906 3.378906 -11.460938 3.171875 -10.671875 C 2.523438 -8.046875 2.203125 -6.226562 2.203125 -5.21875 C 2.203125 -4.164062 2.476562 -3.335938 3.03125 -2.734375 C 3.382812 -2.347656 3.945312 -2.113281 4.71875 -2.03125 C 4.8125 -2.03125 4.90625 -2.03125 5 -2.03125 C 7.65625 -2.03125 9.398438 -3.304688 10.234375 -5.859375 C 10.722656 -7.359375 11.003906 -9.164062 11.078125 -11.28125 C 11.128906 -12.257812 11.171875 -13.226562 11.203125 -14.1875 C 11.378906 -14.675781 11.625 -14.921875 11.9375 -14.921875 C 12.25 -14.921875 12.59375 -14.78125 12.96875 -14.5 C 13.007812 -13.5625 13.03125 -12.632812 13.03125 -11.71875 L 12.796875 -2.390625 C 12.796875 -1.722656 12.8125 -1.054688 12.84375 -0.390625 Z M 12.84375 -0.390625 "/></g></g></g><g fill="#292a73" fill-opacity="1"><g transform="translate(210.811627, 241.065541)"><g><path d="M 0.359375 -2.140625 C 0.359375 -2.441406 0.484375 -2.707031 0.734375 -2.9375 C 0.992188 -3.175781 1.191406 -3.335938 1.328125 -3.421875 C 1.460938 -3.515625 1.554688 -3.585938 1.609375 -3.640625 C 1.691406 -2.160156 2.691406 -1.421875 4.609375 -1.421875 C 6.128906 -1.421875 7.894531 -1.890625 9.90625 -2.828125 C 11.34375 -3.484375 12.304688 -4.148438 12.796875 -4.828125 C 12.953125 -5.046875 13.03125 -5.222656 13.03125 -5.359375 C 13.03125 -5.492188 13.007812 -5.601562 12.96875 -5.6875 L 2.828125 -7.953125 C 2.535156 -8.023438 2.253906 -8.164062 1.984375 -8.375 C 1.472656 -8.726562 1.21875 -9.050781 1.21875 -9.34375 C 1.21875 -10.46875 2.015625 -11.488281 3.609375 -12.40625 C 5.367188 -13.394531 7.722656 -14.144531 10.671875 -14.65625 C 11.335938 -14.757812 11.832031 -14.820312 12.15625 -14.84375 C 12.257812 -14.8125 12.410156 -14.78125 12.609375 -14.75 C 12.816406 -14.726562 13.023438 -14.695312 13.234375 -14.65625 C 13.734375 -14.539062 13.945312 -14.328125 13.875 -14.015625 C 13.875 -13.460938 12.8125 -13.023438 10.6875 -12.703125 C 7.957031 -12.285156 6.253906 -11.9375 5.578125 -11.65625 C 4.898438 -11.382812 4.410156 -11.101562 4.109375 -10.8125 C 3.804688 -10.519531 3.648438 -10.171875 3.640625 -9.765625 C 3.640625 -9.679688 3.828125 -9.585938 4.203125 -9.484375 C 4.578125 -9.390625 5.023438 -9.273438 5.546875 -9.140625 C 6.066406 -9.003906 6.738281 -8.820312 7.5625 -8.59375 C 9.582031 -8.039062 12.054688 -7.34375 14.984375 -6.5 C 15.148438 -6.132812 15.234375 -5.800781 15.234375 -5.5 C 15.234375 -4.632812 14.726562 -3.800781 13.71875 -3 C 12.582031 -2.101562 11.003906 -1.347656 8.984375 -0.734375 C 7.304688 -0.222656 5.972656 0.03125 4.984375 0.03125 C 4.148438 0.03125 3.359375 -0.113281 2.609375 -0.40625 C 1.859375 -0.707031 1.296875 -0.992188 0.921875 -1.265625 C 0.546875 -1.546875 0.359375 -1.835938 0.359375 -2.140625 Z M 0.359375 -2.140625 "/></g></g></g></svg>